<?xml version="1.0" standalone="no"?>
<!DOCTYPE svg PUBLIC "-//W3C//DTD SVG 20010904//EN"
 "http://www.w3.org/TR/2001/REC-SVG-20010904/DTD/svg10.dtd">
<svg version="1.0" xmlns="http://www.w3.org/2000/svg"
 width="545.000000pt" height="545.000000pt" viewBox="0 0 545.000000 545.000000"
 preserveAspectRatio="xMidYMid meet">
<metadata>
Created by potrace 1.14, written by Peter Selinger 2001-2017
</metadata>
<g transform="translate(0.000000,545.000000) scale(0.100000,-0.100000)"
fill="#000000" stroke="none">
<path d="M2508 4930 c-651 -63 -1235 -414 -1598 -958 -556 -834 -458 -1952
236 -2681 176 -185 378 -333 619 -452 l140 -70 6 33 c4 18 12 171 19 339 14
325 11 358 -30 439 -28 55 -88 103 -182 148 -186 87 -259 211 -274 462 -5 89
2 173 45 545 67 575 55 515 100 515 l38 0 6 -277 c4 -153 7 -369 7 -480 0
-202 0 -203 23 -207 60 -13 109 -14 112 -3 2 7 18 224 35 482 17 259 33 498
36 533 l6 62 43 0 42 0 6 -202 c4 -112 10 -359 13 -550 l7 -348 77 0 77 0 6
158 c4 86 7 245 7 353 0 108 3 284 7 392 l6 197 44 0 c27 0 43 -5 43 -12 0
-20 69 -948 76 -1015 l6 -62 46 5 c26 3 57 7 70 10 l22 4 0 480 0 480 43 0 43
0 39 -447 c45 -508 48 -654 16 -776 -41 -158 -103 -230 -258 -303 -151 -71
-202 -142 -211 -287 -4 -73 11 -496 24 -669 l6 -76 62 -16 c124 -31 254 -47
421 -53 191 -6 343 5 510 40 l110 22 18 365 c10 201 15 395 13 432 -9 134 -62
205 -202 274 -120 58 -194 124 -234 208 -109 229 -64 689 100 1011 85 167 172
263 290 319 56 26 76 31 145 31 71 0 88 -4 150 -34 171 -85 316 -310 395 -616
72 -282 64 -566 -22 -728 -41 -77 -98 -127 -207 -182 -50 -25 -109 -61 -130
-80 -45 -41 -81 -117 -88 -189 -4 -43 24 -716 30 -723 1 -1 61 27 134 62 812
390 1299 1251 1212 2141 -96 988 -827 1773 -1804 1934 -137 23 -414 33 -547
20z"/>
</g>
</svg>
