<svg id="Layer_1" data-name="Layer 1" xmlns="http://www.w3.org/2000/svg" viewBox="0 0 296.89 292.45"><defs><style>.cls-1{fill:#e67e22;}</style></defs><path class="cls-1" d="M203.46,281.67c-.21-2.08-.49-4-.57-5.84-.57-12.93-1.07-25.86-1.63-38.78-.46-10.53,3.87-18.13,13.81-22,13-5,18.36-15.12,19.38-28.25,1.72-22.09-2.75-42.78-14.93-61.41a45.37,45.37,0,0,0-11.06-11.56c-9.35-6.84-20.77-5.9-29.91,1.58a49.88,49.88,0,0,0-13.19,17.37c-9.12,18.89-13.16,38.64-9.65,59.59,1.78,10.59,7.53,18.23,17.57,22.2,10.73,4.24,15.47,12,14.91,23.38q-1.14,23.43-2.07,46.87c-.09,2.22-1,3.05-3.09,3.57a142.08,142.08,0,0,1-48.88,3.18c-7.14-.72-14.17-2.35-21.27-3.41-2.9-.43-3.81-1.93-3.9-4.71-.42-12.26-1-24.51-1.5-36.76a96.87,96.87,0,0,1-.08-11.43c.62-7.77,5.34-12.81,11.81-16.49a25,25,0,0,1,3.38-1.52c10.87-4.24,16.92-12.47,17.87-23.75a215.08,215.08,0,0,0-.11-29.93c-.91-15-2.46-30-3.86-45-.12-1.35-.74-3.32-1.72-3.8-2.34-1.14-3.51.1-3.54,3.38q-.24,27.53-.44,55c-.06,6.88-.95,7.82-8,7.28-.81-.06-2-1.85-2.14-2.93-.68-6.71-1.1-13.45-1.59-20.18-1.16-15.92-2.37-31.85-3.41-47.78-.17-2.59-1.6-2.39-3.37-2.47-2.28-.11-3.12.65-3.14,3.06-.2,19.69-.51,39.38-.8,59.08,0,1.8,0,3.61-.12,5.4-.18,2.2,0,6-.91,6.28-2.73.93-5.93.67-8.91.44-.63,0-1.55-1.93-1.59-3-.32-8-.49-16-.65-24q-.45-21.95-.81-43.88c0-2,0-3.44-2.76-3.47-2.45,0-2.94.91-3.08,3.13-1.48,22.56-3.1,45.11-4.59,67.66-.15,2.19-.83,2.95-3.09,2.69-6.81-.81-6.81-.74-6.87-7.71q-.25-27.36-.53-54.7c0-1-.09-2-.14-2.93-4.41-1.28-4.76-1.17-5.3,3.12-2.58,20.36-5.5,40.7-7.34,61.13-.63,7,.84,14.38,2.64,21.25,2.08,8,8.44,12.85,15.73,16.09,12.16,5.42,16.13,11.26,15.69,24.52-.41,12.37-1,24.73-1.52,37.1a36.21,36.21,0,0,1-.53,4c-5.81-2.82-11.18-5.27-16.41-8-20-10.44-36-25.39-49.58-43.38-16-21.17-24.36-45-26.91-71.17C-2.54,126,4.93,94.58,23.84,66.4c11.14-16.6,25-31,42-41.87,20-12.8,41.71-21.07,65.36-23.61A150.78,150.78,0,0,1,191.92,6.4a157.7,157.7,0,0,1,42.54,20.76c17.13,11.58,30.13,26.74,41.19,44,16.53,25.78,22.44,54.19,21.05,84.27A129.94,129.94,0,0,1,280.18,214c-10.09,17.8-22.47,34-39,46.44C230.3,268.62,218.81,276,206,281Q204.77,281.39,203.46,281.67Z" transform="translate(0 0.05)"/></svg>