<?xml version="1.0" encoding="utf-8"?>
<!-- Generator: Adobe Illustrator 25.0.0, SVG Export Plug-In . SVG Version: 6.00 Build 0)  -->
<svg version="1.1" id="Layer_1" xmlns="http://www.w3.org/2000/svg" xmlns:xlink="http://www.w3.org/1999/xlink" x="0px" y="0px"
	 viewBox="0 0 296.9 292.4" style="enable-background:new 0 0 296.9 292.4;" xml:space="preserve">
<path d="M203.5,281.7c-0.2-2.1-0.5-4-0.6-5.8c-0.6-12.9-1.1-25.9-1.6-38.8c-0.5-10.5,3.9-18.1,13.8-22c13-5,18.4-15.1,19.4-28.2
	c1.7-22.1-2.8-42.8-14.9-61.4c-3-4.5-6.7-8.4-11.1-11.6c-9.4-6.8-20.8-5.9-29.9,1.6c-5.6,4.7-10.1,10.7-13.2,17.4
	c-9.1,18.9-13.2,38.6-9.6,59.6c1.8,10.6,7.5,18.2,17.6,22.2c10.7,4.2,15.5,12,14.9,23.4c-0.8,15.6-1.4,31.2-2.1,46.9
	c-0.1,2.2-1,3-3.1,3.6c-16,3.9-32.5,5-48.9,3.2c-7.1-0.7-14.2-2.4-21.3-3.4c-2.9-0.4-3.8-1.9-3.9-4.7c-0.4-12.3-1-24.5-1.5-36.8
	c-0.3-3.8-0.3-7.6-0.1-11.4c0.6-7.8,5.3-12.8,11.8-16.5c1.1-0.6,2.2-1.1,3.4-1.5c10.9-4.2,16.9-12.5,17.9-23.8
	c0.7-10,0.6-20-0.1-29.9c-0.9-15-2.5-30-3.9-45c-0.1-1.4-0.7-3.3-1.7-3.8c-2.3-1.1-3.5,0.1-3.5,3.4c-0.2,18.4-0.3,36.7-0.4,55
	c-0.1,6.9-0.9,7.8-8,7.3c-0.8-0.1-2-1.9-2.1-2.9c-0.7-6.7-1.1-13.4-1.6-20.2c-1.2-15.9-2.4-31.9-3.4-47.8c-0.2-2.6-1.6-2.4-3.4-2.5
	c-2.3-0.1-3.1,0.6-3.1,3.1c-0.2,19.7-0.5,39.4-0.8,59.1c0,1.8,0,3.6-0.1,5.4c-0.2,2.2,0,6-0.9,6.3c-2.7,0.9-5.9,0.7-8.9,0.4
	c-0.6,0-1.6-1.9-1.6-3c-0.3-8-0.5-16-0.7-24c-0.3-14.6-0.6-29.3-0.8-43.9c0-2,0-3.4-2.8-3.5c-2.4,0-2.9,0.9-3.1,3.1
	c-1.5,22.6-3.1,45.1-4.6,67.7c-0.2,2.2-0.8,3-3.1,2.7c-6.8-0.8-6.8-0.7-6.9-7.7c-0.2-18.2-0.3-36.5-0.5-54.7c0-1-0.1-2-0.1-2.9
	c-4.4-1.3-4.8-1.2-5.3,3.1c-2.6,20.4-5.5,40.7-7.3,61.1c-0.6,7,0.8,14.4,2.6,21.2c2.1,8,8.4,12.9,15.7,16.1
	c12.2,5.4,16.1,11.3,15.7,24.5c-0.4,12.4-1,24.7-1.5,37.1c0,1.1-0.3,2.1-0.5,4c-5.8-2.8-11.2-5.3-16.4-8c-20-10.4-36-25.4-49.6-43.4
	c-16-21.2-24.4-45-26.9-71.2c-3.4-33.9,4-65.3,22.9-93.5c11.1-16.6,25-31,42-41.9c20-12.8,41.7-21.1,65.4-23.6
	c20.4-2.3,41.1-0.5,60.7,5.5c15.1,4.7,29.5,11.7,42.5,20.8c17.1,11.6,30.1,26.7,41.2,44c16.5,25.8,22.4,54.2,21,84.3
	c-0.8,20.6-6.4,40.6-16.5,58.6c-10.1,17.8-22.5,34-39,46.4c-10.9,8.2-22.4,15.5-35.1,20.5C205.2,281.3,204.3,281.5,203.5,281.7z"/>
</svg>
